<?xml version="1.0" standalone="no"?>
<!DOCTYPE svg PUBLIC "-//W3C//DTD SVG 20010904//EN"
 "http://www.w3.org/TR/2001/REC-SVG-20010904/DTD/svg10.dtd">
<svg version="1.0" xmlns="http://www.w3.org/2000/svg"
 width="1414.000000pt" height="450.000000pt" viewBox="0 0 1414.000000 450.000000"
 preserveAspectRatio="xMidYMid meet">
<metadata>
Created by potrace 1.16, written by Peter Selinger 2001-2019
</metadata>
<g transform="translate(0.000000,450.000000) scale(0.100000,-0.100000)"
fill="#000000" stroke="none">
<path d="M3150 3803 c-339 -18 -750 -122 -1048 -263 -46 -22 -86 -40 -89 -40
-13 0 -260 -160 -321 -208 -263 -209 -433 -464 -487 -731 -23 -109 -16 -442
10 -536 44 -160 101 -289 188 -421 54 -83 213 -253 294 -315 32 -24 60 -47 63
-50 16 -21 213 -139 310 -186 408 -198 860 -284 1415 -269 358 9 606 48 900
142 610 196 1038 603 1157 1099 19 77 22 120 22 300 1 193 -1 217 -23 295 -57
200 -160 369 -326 536 -179 180 -431 343 -670 434 -33 12 -73 28 -90 35 -57
25 -223 74 -331 99 -306 71 -639 98 -974 79z m615 -101 c22 -5 81 -15 130 -22
50 -7 116 -19 148 -27 32 -7 77 -18 100 -23 78 -16 236 -65 292 -89 11 -5 36
-15 55 -22 51 -18 122 -48 145 -61 11 -6 49 -27 85 -45 36 -18 79 -42 95 -53
17 -11 37 -23 45 -26 37 -17 110 -78 103 -85 -5 -5 -42 -20 -83 -35 -312 -108
-597 -104 -873 12 -94 39 -203 80 -287 106 -65 20 -95 23 -235 23 -155 0 -285
-17 -285 -36 0 -5 -9 -9 -20 -9 -25 0 -127 -51 -193 -96 -34 -24 -61 -34 -86
-34 -20 0 -109 -18 -196 -40 -88 -22 -177 -40 -197 -40 -42 0 -282 46 -307 59
-9 5 -52 18 -96 30 -117 31 -275 85 -275 94 0 4 24 22 53 40 29 17 61 38 72
44 36 23 199 104 246 123 26 10 66 27 90 38 39 17 196 68 284 93 124 34 372
77 540 93 74 7 610 -3 650 -12z m-172 -433 c86 -12 223 -52 292 -84 248 -115
478 -155 718 -125 104 13 284 62 388 105 32 14 64 25 71 25 18 0 188 -178 241
-252 47 -66 108 -180 134 -253 25 -69 42 -140 35 -147 -4 -4 -63 -21 -132 -38
-240 -60 -575 -170 -728 -240 -57 -27 -62 -26 -108 16 -34 32 -99 89 -184 160
-14 12 -66 57 -116 100 -127 111 -201 174 -232 198 -15 11 -34 27 -42 36 -22
22 -169 141 -210 170 -19 13 -37 27 -40 32 -17 23 -131 63 -190 66 -107 6
-186 -33 -405 -202 -111 -85 -153 -106 -227 -113 -71 -6 -165 17 -175 43 -9
24 245 295 348 371 161 119 351 164 562 132z m-1739 -89 c129 -49 346 -112
475 -140 135 -29 223 -26 370 11 67 16 127 29 132 27 5 -2 -14 -28 -43 -58
-28 -30 -82 -88 -119 -128 -60 -64 -69 -79 -69 -110 1 -63 49 -103 153 -127
80 -19 125 -19 184 1 46 16 150 73 176 97 6 7 32 28 57 47 25 19 53 42 64 52
35 32 183 100 227 105 64 7 184 -45 251 -110 7 -7 33 -28 58 -47 25 -19 56
-45 70 -57 14 -11 63 -54 110 -93 47 -40 108 -92 135 -116 28 -24 59 -51 71
-61 12 -10 49 -43 84 -73 78 -68 86 -75 151 -130 30 -24 80 -69 112 -100 53
-53 57 -60 57 -103 0 -39 -5 -51 -34 -80 -37 -38 -79 -50 -136 -41 -40 7 -48
12 -180 133 -77 70 -138 124 -199 174 -12 9 -28 17 -36 17 -38 0 -4 -46 136
-185 83 -83 157 -162 165 -177 46 -88 -36 -188 -156 -188 -42 0 -58 11 -185
135 -122 117 -162 146 -176 124 -10 -16 -4 -27 41 -76 163 -177 190 -213 190
-248 0 -44 -35 -80 -92 -96 -59 -15 -93 -3 -152 54 -129 126 -166 157 -185
157 -34 0 -24 -31 25 -85 26 -27 66 -71 90 -98 24 -26 44 -54 44 -63 0 -44
-137 -55 -228 -19 -43 18 -44 18 -35 54 12 52 7 131 -10 172 -33 79 -115 142
-197 151 -25 3 -36 10 -38 24 -16 100 -25 126 -60 162 -47 50 -105 72 -187 72
-62 0 -67 2 -104 39 -70 70 -195 90 -281 46 -34 -18 -52 -12 -94 31 -12 11
-40 18 -86 22 -62 4 -76 1 -124 -23 -40 -20 -59 -25 -68 -18 -26 21 -153 85
-222 113 -132 52 -289 101 -471 146 -202 50 -225 58 -225 78 0 49 76 225 138
321 68 103 277 325 307 325 7 0 60 -18 119 -40z m-339 -775 c121 -30 229 -59
240 -64 11 -5 62 -23 113 -40 108 -37 186 -71 252 -112 l47 -29 0 -73 c1 -77
14 -116 55 -160 37 -39 98 -67 148 -67 44 0 45 -1 64 -46 10 -25 35 -61 55
-80 39 -37 124 -74 171 -74 37 0 60 -9 60 -24 0 -20 52 -64 103 -85 31 -13 70
-21 108 -21 32 0 59 -4 59 -8 0 -20 88 -102 125 -117 24 -10 67 -17 107 -17
57 0 77 5 123 31 l55 31 74 -25 c121 -41 242 -31 297 24 23 24 35 27 90 27 39
0 78 7 99 17 50 24 110 85 117 119 5 26 9 28 52 28 116 0 224 80 240 178 6 32
10 36 41 39 73 7 98 14 143 43 59 37 87 90 87 165 0 31 -4 64 -9 73 -13 24 7
48 49 57 19 4 40 11 45 15 6 4 75 29 155 55 80 26 154 52 165 56 11 5 63 20
115 34 187 50 215 57 240 66 14 4 39 10 55 11 l30 3 -3 -95 c-3 -95 -29 -225
-59 -290 -38 -85 -99 -200 -112 -210 -3 -3 -18 -23 -32 -45 -35 -54 -178 -198
-264 -266 -66 -52 -247 -169 -262 -169 -3 0 -14 -6 -22 -13 -9 -7 -61 -33
-116 -57 -55 -24 -104 -47 -109 -52 -6 -4 -17 -8 -26 -8 -9 0 -33 -9 -55 -20
-22 -11 -44 -20 -51 -20 -6 0 -37 -9 -70 -21 -32 -11 -75 -24 -94 -29 -19 -5
-55 -14 -80 -20 -72 -19 -185 -39 -340 -62 -115 -16 -197 -21 -400 -21 -318
-1 -523 23 -794 93 -44 11 -87 20 -98 20 -10 0 -18 4 -18 9 0 5 -14 11 -31 15
-45 9 -235 80 -295 110 -29 14 -57 26 -62 26 -6 0 -12 3 -14 8 -1 4 -37 25
-78 46 -69 37 -131 74 -155 94 -6 5 -17 13 -26 18 -46 27 -168 131 -243 209
-48 50 -136 159 -136 169 0 3 -12 22 -26 43 -71 106 -130 288 -140 440 -7 89
-3 123 13 123 5 0 107 -25 228 -55z m925 -210 c36 -19 70 -62 70 -90 0 -35 10
-36 37 -4 68 81 205 93 266 24 9 -11 23 -39 29 -62 7 -24 18 -43 25 -43 7 0
13 4 13 8 0 12 66 42 92 42 41 0 97 -23 124 -51 32 -33 42 -106 25 -179 -5
-24 -8 -46 -6 -48 2 -2 27 1 55 8 90 22 167 -13 204 -94 37 -78 1 -182 -76
-222 -49 -25 -131 -21 -176 9 -39 25 -72 78 -72 114 0 10 -4 25 -10 33 -8 12
-15 11 -48 -8 -46 -25 -86 -28 -133 -8 -49 21 -80 58 -86 105 -4 31 -10 41
-24 41 -10 0 -20 -4 -23 -9 -10 -15 -68 -21 -106 -11 -79 21 -130 91 -130 180
0 55 -4 59 -33 33 -14 -13 -36 -18 -77 -18 -51 0 -63 4 -88 28 -34 32 -52 83
-44 124 16 89 114 139 192 98z"/>
<path d="M12032 3718 c-41 -8 -63 -19 -91 -47 -46 -46 -51 -68 -51 -232 0 -71
-2 -129 -5 -129 -2 0 -20 16 -40 36 -59 59 -116 79 -220 79 -100 0 -149 -15
-220 -69 -84 -63 -121 -128 -156 -266 -28 -111 -23 -294 10 -379 45 -113 114
-188 207 -225 73 -29 224 -50 299 -41 178 22 308 122 355 275 19 62 20 88 18
535 l-3 470 -25 2 c-14 0 -49 -3 -78 -9z m-249 -526 c45 -25 94 -102 108 -170
18 -88 7 -199 -28 -269 -33 -66 -74 -99 -138 -109 -111 -16 -185 30 -224 140
-31 88 -27 234 8 311 27 58 81 112 119 118 47 9 123 -2 155 -21z"/>
<path d="M12580 3429 c-65 -11 -162 -57 -208 -99 -46 -43 -105 -138 -128 -206
-29 -90 -27 -296 4 -382 51 -144 158 -249 283 -280 187 -46 390 -8 492 94 100
99 138 192 145 356 4 100 1 127 -18 190 -25 85 -75 170 -128 223 -95 94 -262
133 -442 104z m201 -213 c46 -19 83 -61 110 -121 30 -68 33 -224 5 -304 -46
-132 -180 -184 -308 -120 -82 42 -124 150 -116 299 8 126 52 211 129 244 44
19 137 20 180 2z"/>
<path d="M6545 3424 c-95 -26 -202 -109 -244 -191 -46 -88 -51 -140 -49 -464
l3 -304 90 -3 c145 -5 130 -42 130 316 l0 308 27 42 c37 55 78 75 152 75 63
-1 92 -16 130 -67 20 -26 21 -44 26 -349 l5 -322 90 -3 c50 -2 100 0 113 3
l22 5 0 311 0 311 28 39 c35 49 81 72 149 71 66 0 114 -28 139 -80 16 -32 18
-73 21 -327 2 -159 3 -300 3 -312 0 -22 3 -23 110 -23 l110 0 0 305 c0 188 -4
324 -11 357 -28 131 -89 215 -193 268 -57 28 -78 33 -160 38 -82 4 -104 2
-156 -18 -33 -12 -80 -40 -104 -61 -24 -22 -46 -39 -49 -39 -3 0 -23 16 -43
36 -62 57 -115 77 -224 80 -52 2 -104 1 -115 -2z"/>
<path d="M8031 3415 c-214 -61 -330 -235 -331 -498 0 -67 24 -180 51 -243 56
-125 244 -234 404 -234 156 1 260 36 348 119 48 45 113 142 103 152 -2 2 -60
3 -128 1 -115 -3 -126 -5 -153 -27 -73 -63 -233 -59 -304 7 -40 37 -70 100
-71 146 l0 32 342 0 341 0 -6 98 c-8 108 -27 184 -64 252 -30 55 -87 116 -128
137 -16 9 -32 19 -35 22 -3 3 -27 14 -55 24 -70 26 -242 32 -314 12z m211
-197 c68 -20 121 -85 130 -158 l3 -25 -200 -3 c-110 -1 -205 0 -211 2 -10 4
-8 18 4 57 36 112 150 165 274 127z"/>
<path d="M9155 3423 c-80 -8 -168 -41 -230 -87 -78 -59 -126 -129 -156 -226
-18 -59 -19 -90 -17 -355 l3 -290 115 0 115 0 5 285 c5 269 7 288 28 330 15
31 36 54 67 73 40 23 56 27 125 27 l80 0 0 125 0 125 -47 -2 c-27 -1 -66 -3
-88 -5z"/>
<path d="M9705 3424 c-93 -15 -181 -59 -244 -123 -158 -161 -175 -512 -34
-704 76 -103 187 -150 358 -150 119 -1 186 14 259 57 79 46 160 155 180 241 4
17 9 38 12 48 5 16 -6 17 -125 17 l-130 0 -10 -36 c-13 -48 -50 -100 -80 -114
-14 -6 -46 -14 -73 -17 -38 -5 -57 -1 -102 21 -48 23 -59 35 -83 83 -22 47
-28 74 -31 151 -4 94 8 184 32 227 24 44 77 84 125 94 100 21 186 -24 213
-111 l11 -38 129 0 c146 0 138 -6 112 92 -32 127 -109 205 -237 242 -58 17
-225 29 -282 20z"/>
<path d="M10600 3416 c-67 -18 -139 -57 -168 -91 -33 -39 -69 -119 -78 -172
l-7 -43 117 0 116 0 15 37 c24 56 42 71 102 83 120 25 222 -21 210 -95 -3 -19
-12 -41 -19 -48 -21 -21 -95 -47 -133 -47 -63 0 -217 -31 -269 -55 -64 -28
-107 -67 -137 -125 -31 -59 -34 -204 -6 -262 61 -123 200 -171 427 -148 152
15 256 63 318 146 53 71 62 128 62 389 0 221 -1 232 -24 280 -36 77 -97 121
-208 151 -65 17 -256 17 -318 0z m307 -576 c-7 -108 -33 -155 -107 -192 -112
-56 -217 -28 -233 64 -18 96 31 141 190 172 46 9 93 21 105 26 49 19 51 16 45
-70z"/>
</g>
</svg>
